# ProBuilder 5.2.3
# https://unity3d.com/unity/features/worldbuilding/probuilder
# 1/9/2025 1:39:33 PM

mtllib ./Cylinder_(1).mtl
o Cylinder (1)

g Cylinder (1)
v -1.192093E-07 0 1.020516
v -1.192093E-07 3.416155 1.020516
v 0.2601779 0 1.676492
v 0.2601779 3.416155 1.676492
v 0.9189715 0 2.025529
v 0.9189715 3.416155 2.025529
v 1.668124 0 1.90431
v 1.668124 3.416155 1.90431
v 2.157099 0 1.369554
v 2.157099 3.416155 1.369554
v 2.157099 0 0.6714788
v 2.157099 3.416155 0.6714788
v 1.668124 0 0.1367226
v 1.668124 3.416155 0.1367226
v 0.9189716 0 0.01550329
v 0.9189716 3.416155 0.01550329
v 0.260178 0 0.3645404
v 0.260178 3.416155 0.3645404

vt -0.9486246 0
vt -0.9486246 3.416155
vt -1.654313 0
vt -1.654313 3.416155
vt -1.014778 0
vt -1.014778 3.416155
vt -1.760322 0
vt -1.760322 3.416155
vt -0.5836331 0
vt -0.5836331 3.416155
vt -1.34253 0
vt -1.34253 3.416155
vt 0.2796966 0
vt 0.2796966 3.416155
vt -0.4449139 0
vt -0.4449139 3.416155
vt 1.369554 0
vt 1.369554 3.416155
vt 0.6714788 0
vt 0.6714788 3.416155
vt 1.951178 0
vt 1.951178 3.416155
vt 1.226568 0
vt 1.226568 3.416155
vt 1.668545 0
vt 1.668545 3.416155
vt 0.9096489 0
vt 0.9096489 3.416155
vt 0.8047833 0
vt 0.8047833 3.416155
vt 0.05923924 0
vt 0.05923924 3.416155
vt -0.2429357 0
vt -0.2429357 3.416155
vt 0.9486246 -1.192093E-07
vt 0.9486246 3.416155
vt 1.654313 -1.192093E-07
vt 1.654313 3.416155
vt 1.014778 -1.192093E-07
vt 1.014778 3.416155
vt 1.760322 -1.192093E-07
vt 1.760322 3.416155
vt 0.5836331 -1.192093E-07
vt 0.5836331 3.416155
vt 1.34253 -1.192093E-07
vt 1.34253 3.416155
vt -0.2796966 -1.192093E-07
vt -0.2796966 3.416155
vt 0.4449138 -1.192093E-07
vt 0.4449138 3.416155
vt -1.369554 -1.192093E-07
vt -1.369554 3.416155
vt -0.6714787 -1.192093E-07
vt -0.6714787 3.416155
vt -1.951178 -1.192093E-07
vt -1.951178 3.416155
vt -1.226568 -1.192093E-07
vt -1.226568 3.416155
vt -1.668545 -1.192093E-07
vt -1.668545 3.416155
vt -0.9096489 -1.192093E-07
vt -0.9096489 3.416155
vt -0.8047833 -1.192093E-07
vt -0.8047833 3.416155
vt -0.05923927 -1.192093E-07
vt -0.05923927 3.416155
vt 0.2429357 -1.192093E-07
vt 0.2429357 3.416155

vn 1 0 3.206089E-08
vn 0.7447809 0 -0.6673091
vn 0.162671 0 -0.9866803
vn -0.4752546 0 -0.8798483
vn -0.9321993 0 -0.3619452
vn -0.9321993 0 0.3619454
vn -0.4752546 0 0.8798484
vn 0.1626709 0 0.9866804
vn 0.7447808 0 0.6673091
vn -1 0 0
vn -0.7447811 0 0.6673089
vn -0.1626708 0 0.9866804
vn 0.4752548 0 0.8798482
vn 0.9321993 0 0.3619454
vn 0.9321992 0 -0.3619457
vn 0.4752547 0 -0.8798483
vn -0.1626707 0 -0.9866804
vn -0.7447811 0 -0.6673089

usemtl Lit
f 1/1/1 2/2/1 4/4/2 3/3/2
f 3/5/2 4/6/2 6/8/3 5/7/3
f 5/9/3 6/10/3 8/12/4 7/11/4
f 7/13/4 8/14/4 10/16/5 9/15/5
f 9/17/5 10/18/5 12/20/6 11/19/6
f 11/21/6 12/22/6 14/24/7 13/23/7
f 13/25/7 14/26/7 16/28/8 15/27/8
f 15/29/8 16/30/8 18/32/9 17/31/9
f 17/33/9 18/34/9 2/2/1 1/1/1
f 3/37/11 4/38/11 2/36/10 1/35/10
f 5/41/12 6/42/12 4/40/11 3/39/11
f 7/45/13 8/46/13 6/44/12 5/43/12
f 9/49/14 10/50/14 8/48/13 7/47/13
f 11/53/15 12/54/15 10/52/14 9/51/14
f 13/57/16 14/58/16 12/56/15 11/55/15
f 15/61/17 16/62/17 14/60/16 13/59/16
f 17/65/18 18/66/18 16/64/17 15/63/17
f 1/35/10 2/36/10 18/68/18 17/67/18

